<?xml version="1.0" standalone="no"?>
<!DOCTYPE svg PUBLIC "-//W3C//DTD SVG 20010904//EN"
 "http://www.w3.org/TR/2001/REC-SVG-20010904/DTD/svg10.dtd">
<svg version="1.0" xmlns="http://www.w3.org/2000/svg"
 width="240.000000pt" height="240.000000pt" viewBox="0 0 240.000000 240.000000"
 preserveAspectRatio="xMidYMid meet">
<metadata>
Created by potrace 1.11, written by Peter Selinger 2001-2013
</metadata>
<g transform="translate(0.000000,240.000000) scale(0.100000,-0.100000)"
fill="#000000" stroke="none">
<path d="M12 1778 c23 -34 144 -88 228 -102 8 -1 29 -6 45 -9 54 -13 79 -17
125 -23 25 -3 52 -7 60 -9 8 -3 44 -7 80 -10 36 -4 76 -8 90 -11 156 -26 956
-25 1121 1 13 2 52 6 86 9 104 11 144 17 238 37 50 11 101 22 115 25 73 14
174 65 191 95 9 19 -18 19 -1192 19 l-1201 0 14 -22z"/>
<path d="M146 1577 c-26 -26 -35 -70 -16 -82 6 -4 8 -10 5 -14 -5 -10 39 -31
64 -31 10 0 30 9 44 20 21 17 40 20 119 20 l94 0 0 -162 -1 -163 -95 -3 c-86
-2 -98 -1 -118 19 -44 40 -122 3 -122 -58 0 -12 5 -25 10 -28 6 -4 8 -10 5
-14 -5 -10 39 -31 64 -31 10 0 29 9 43 19 22 17 45 20 243 23 200 3 223 5 255
24 51 30 78 75 76 126 -2 35 -9 47 -41 75 -21 18 -33 33 -27 33 7 0 21 14 31
31 40 66 -3 150 -85 169 -21 5 -126 10 -233 10 -158 0 -198 3 -211 15 -9 8
-30 18 -47 21 -26 5 -37 1 -57 -19z m68 -62 c-7 -18 -16 -19 -31 -4 -18 18 -5
41 18 29 10 -6 16 -17 13 -25z m471 -39 c22 -17 27 -58 10 -81 -13 -16 -28
-20 -83 -20 l-67 0 -1 58 -1 58 64 -2 c35 -1 70 -7 78 -13z m26 -203 c16 -16
20 -28 15 -50 -9 -40 -48 -60 -122 -62 l-61 -2 -1 71 -1 72 74 -4 c60 -3 79
-8 96 -25z m-498 -159 c-7 -18 -17 -18 -32 -1 -8 10 -7 17 1 25 15 15 39 -3
31 -24z"/>
<path d="M2197 1580 c-24 -19 -40 -20 -271 -20 l-246 0 0 -35 0 -35 75 0 c53
0 75 -4 76 -12 0 -7 0 -97 1 -200 l0 -188 44 0 44 0 -1 153 c0 83 0 173 0 200
l1 47 130 0 c117 0 132 -2 150 -20 11 -11 31 -20 45 -20 33 0 75 42 75 75 0
33 -41 75 -73 75 -13 0 -36 -9 -50 -20z m66 -66 c-7 -18 -17 -18 -32 -1 -8 10
-7 17 1 25 15 15 39 -3 31 -24z"/>
<path d="M1376 1548 c-26 -13 -43 -32 -56 -61 -41 -93 0 -167 105 -191 92 -22
106 -28 115 -52 13 -33 -5 -70 -42 -85 -28 -11 -167 -7 -189 6 -5 4 -9 -7 -9
-24 0 -41 27 -54 125 -57 130 -5 204 41 207 128 3 101 -25 126 -184 162 -62
14 -75 93 -19 116 29 12 118 9 167 -5 18 -6 20 -3 16 28 -3 29 -9 36 -37 44
-57 18 -156 13 -199 -9z"/>
<path d="M908 1553 c-4 -7 -2 -434 1 -456 0 -4 72 -6 158 -5 l157 3 1 30 0 30
-116 3 -117 3 0 69 0 70 94 0 94 0 0 35 0 35 -94 0 -93 0 0 60 0 60 109 0 108
0 0 35 0 35 -149 0 c-83 0 -151 -3 -153 -7z"/>
<path d="M899 1056 c-2 -2 -53 -7 -114 -10 -60 -4 -128 -8 -150 -11 -75 -8
-140 -15 -170 -20 -16 -3 -46 -7 -65 -10 -166 -24 -304 -67 -367 -113 l-33
-24 0 -134 0 -134 1200 0 1200 0 0 126 c0 69 -4 134 -10 144 -16 31 -130 85
-205 97 -11 2 -36 8 -55 13 -19 5 -52 12 -74 16 -21 3 -48 8 -60 10 -11 2 -39
6 -61 9 -22 3 -56 7 -75 10 -19 2 -69 7 -110 11 -41 4 -88 8 -105 11 -37 5
-741 13 -746 9z"/>
</g>
</svg>
